# xmcd
#
# Track frame offsets:
#	150
#	14251
#	33846
#	48104
#	60277
#	78381
#	89204
#	107809
#	119277
#	140605
#
# Disc length: 2058 seconds
#
# Revision: 2
# Processed by: cddbd v1.5.2PL0 Copyright (c) Steve Scherf et al.
# Submitted via: EasyCDDAExtractor 16.0.1.1
#
DISCID=7b08080a
DTITLE=Florence Dore - Perfect City
DYEAR=2001
DGENRE=Country
TTITLE0=Early World
TTITLE1=Perfect City
TTITLE2=No Nashville
TTITLE3=Framed
TTITLE4=Christmas
TTITLE5=Everything I Dreamed
TTITLE6=Postcard
TTITLE7=Brain
TTITLE8=Say The Thing
TTITLE9=Wintertown (Ode To Kent  OH)
EXTD=
EXTT0=
EXTT1=
EXTT2=
EXTT3=
EXTT4=
EXTT5=
EXTT6=
EXTT7=
EXTT8=
EXTT9=
PLAYORDER=
